<?xml version="1.0" encoding="UTF-8" standalone="no"?>
<!-- Created with Inkscape (http://www.inkscape.org/) -->

<svg
   xmlns:osb="http://www.openswatchbook.org/uri/2009/osb"
   xmlns:dc="http://purl.org/dc/elements/1.1/"
   xmlns:cc="http://creativecommons.org/ns#"
   xmlns:rdf="http://www.w3.org/1999/02/22-rdf-syntax-ns#"
   xmlns:svg="http://www.w3.org/2000/svg"
   xmlns="http://www.w3.org/2000/svg"
   xmlns:xlink="http://www.w3.org/1999/xlink"
   xmlns:sodipodi="http://sodipodi.sourceforge.net/DTD/sodipodi-0.dtd"
   xmlns:inkscape="http://www.inkscape.org/namespaces/inkscape"
   width="168.46437"
   height="32.52"
   id="svg2"
   version="1.1"
   inkscape:version="0.48.4 r9939"
   sodipodi:docname="audoReact.svg">
  <defs
     id="defs4">
    <linearGradient
       inkscape:collect="always"
       id="linearGradient5285">
      <stop
         style="stop-color:#00ff00;stop-opacity:1;"
         offset="0"
         id="stop5287" />
      <stop
         style="stop-color:#00ff00;stop-opacity:0;"
         offset="1"
         id="stop5289" />
    </linearGradient>
    <linearGradient
       id="linearGradient3845"
       osb:paint="solid">
      <stop
         style="stop-color:#00ff00;stop-opacity:1;"
         offset="0"
         id="stop3847" />
    </linearGradient>
    <linearGradient
       inkscape:collect="always"
       xlink:href="#linearGradient5285"
       id="linearGradient5293"
       x1="66.454147"
       y1="127.74657"
       x2="243.13416"
       y2="127.74657"
       gradientUnits="userSpaceOnUse" />
  </defs>
  <sodipodi:namedview
     id="base"
     pagecolor="#ffffff"
     bordercolor="#666666"
     borderopacity="1.0"
     inkscape:pageopacity="0"
     inkscape:pageshadow="2"
     inkscape:zoom="3.28"
     inkscape:cx="115.65469"
     inkscape:cy="-9.261331"
     inkscape:document-units="px"
     inkscape:current-layer="layer1"
     showgrid="false"
     fit-margin-top="0"
     fit-margin-left="0"
     fit-margin-right="0"
     fit-margin-bottom="0"
     inkscape:window-width="1600"
     inkscape:window-height="851"
     inkscape:window-x="0"
     inkscape:window-y="25"
     inkscape:window-maximized="1" />
  <metadata
     id="metadata7">
    <rdf:RDF>
      <cc:Work
         rdf:about="">
        <dc:format>image/svg+xml</dc:format>
        <dc:type
           rdf:resource="http://purl.org/dc/dcmitype/StillImage" />
        <dc:title />
      </cc:Work>
    </rdf:RDF>
  </metadata>
  <g
     inkscape:label="Layer 1"
     inkscape:groupmode="layer"
     id="layer1"
     transform="translate(-65.854148,-109.84657)">
    <g
       style="font-size:40px;font-style:normal;font-variant:normal;font-weight:normal;font-stretch:normal;line-height:125%;letter-spacing:0px;word-spacing:0px;fill:#000000;fill-opacity:1;stroke:#00ff00;stroke-opacity:1;font-family:Ubuntu;-inkscape-font-specification:Ubuntu"
       id="text2985">
      <path
         d="m 74.874148,138.70657 c 0.879989,0 1.653321,-0.0133 2.32,-0.04 0.69332,-0.0533 1.266652,-0.13333 1.72,-0.24 l 0,-6.2 c -0.266681,-0.13333 -0.706681,-0.23999 -1.32,-0.32 -0.586679,-0.10666 -1.306679,-0.15999 -2.16,-0.16 -0.560011,1e-5 -1.16001,0.04 -1.8,0.12 -0.613342,0.08 -1.186675,0.25334 -1.72,0.52 -0.506674,0.24 -0.93334,0.58667 -1.28,1.04 -0.346673,0.42667 -0.520006,1 -0.52,1.72 -6e-6,1.33333 0.42666,2.26667 1.28,2.8 0.853325,0.50667 2.013324,0.76 3.48,0.76 m -0.32,-18.64 c 1.493322,2e-5 2.746654,0.20002 3.76,0.6 1.039985,0.37335 1.866651,0.92002 2.48,1.64 0.639983,0.69335 1.093316,1.53335 1.36,2.52 0.266649,0.96001 0.399982,2.02668 0.4,3.2 l 0,13 c -0.320018,0.0533 -0.773351,0.13333 -1.36,0.24 -0.560016,0.08 -1.200016,0.16 -1.92,0.24 -0.720014,0.08 -1.50668,0.14666 -2.36,0.2 -0.826678,0.08 -1.653344,0.12 -2.48,0.12 -1.173342,0 -2.253341,-0.12 -3.24,-0.36 -0.986673,-0.24 -1.840005,-0.61334 -2.56,-1.12 -0.720004,-0.53334 -1.280003,-1.22667 -1.68,-2.08 -0.400002,-0.85333 -0.600002,-1.88 -0.6,-3.08 -2e-6,-1.14666 0.226664,-2.13333 0.68,-2.96 0.479997,-0.82666 1.119996,-1.49333 1.92,-2 0.799995,-0.50666 1.733327,-0.87999 2.8,-1.12 1.066658,-0.23999 2.186657,-0.35999 3.36,-0.36 0.373322,1e-5 0.759988,0.0267 1.16,0.08 0.399988,0.0267 0.773321,0.08 1.12,0.16 0.37332,0.0533 0.69332,0.10668 0.96,0.16 0.266652,0.0533 0.453319,0.0933 0.56,0.12 l 0,-1.04 c -1.5e-5,-0.61332 -0.06668,-1.21332 -0.2,-1.8 -0.133348,-0.61332 -0.373347,-1.14665 -0.72,-1.6 -0.34668,-0.47999 -0.82668,-0.85332 -1.44,-1.12 -0.586678,-0.29332 -1.360011,-0.43999 -2.32,-0.44 -1.226675,1e-5 -2.306674,0.0934 -3.24,0.28 -0.906672,0.16001 -1.586672,0.33335 -2.04,0.52 l -0.44,-3.08 c 0.479995,-0.21332 1.279994,-0.41332 2.4,-0.6 1.119992,-0.21332 2.333324,-0.31998 3.64,-0.32"
         style="fill:none;stroke:#00ff00;font-family:Ubuntu;-inkscape-font-specification:Ubuntu"
         id="path3010" />
      <path
         d="m 105.25352,140.78657 c -0.85335,0.21333 -1.98668,0.44 -3.4,0.68 -1.38668,0.24 -3.000011,0.36 -4.839997,0.36 -1.60001,0 -2.946676,-0.22667 -4.04,-0.68 -1.09334,-0.48 -1.973339,-1.14667 -2.64,-2 -0.666671,-0.85333 -1.146671,-1.85333 -1.44,-3 -0.293337,-1.17333 -0.440003,-2.46666 -0.44,-3.88 l 0,-11.68 3.72,0 0,10.88 c -7e-6,2.53334 0.399993,4.34667 1.2,5.44 0.799991,1.09333 2.146656,1.64 4.04,1.64 0.399987,0 0.81332,-0.0133 1.24,-0.04 0.426653,-0.0267 0.826652,-0.0533 1.2,-0.08 0.373317,-0.0533 0.706647,-0.0933 0.999997,-0.12 0.31999,-0.0533 0.54665,-0.10667 0.68,-0.16 l 0,-17.56 3.72,0 0,20.2"
         style="fill:none;stroke:#00ff00;font-family:Ubuntu;-inkscape-font-specification:Ubuntu"
         id="path3012" />
      <path
         d="m 125.10227,124.98657 c -0.45335,-0.37332 -1.10668,-0.73332 -1.96,-1.08 -0.85334,-0.34665 -1.78668,-0.51999 -2.8,-0.52 -1.06667,10e-6 -1.98667,0.20001 -2.76,0.6 -0.74667,0.37335 -1.36001,0.90668 -1.84,1.6 -0.48,0.66668 -0.82667,1.46668 -1.04,2.4 -0.21334,0.93334 -0.32,1.93334 -0.32,3 0,2.42667 0.6,4.30667 1.8,5.64 1.19999,1.30667 2.79999,1.96 4.8,1.96 1.01332,0 1.85332,-0.04 2.52,-0.12 0.69332,-0.10667 1.22665,-0.21333 1.6,-0.32 l 0,-13.16 m 0,-14 3.72,-0.64 0,30.44 c -0.85335,0.24 -1.94668,0.48 -3.28,0.72 -1.33335,0.24 -2.86668,0.36 -4.6,0.36 -1.60001,0 -3.04001,-0.25334 -4.32,-0.76 -1.28,-0.50667 -2.37334,-1.22667 -3.28,-2.16 -0.90667,-0.93333 -1.61333,-2.06667 -2.12,-3.4 -0.48,-1.36 -0.72,-2.88 -0.72,-4.56 0,-1.59999 0.2,-3.06666 0.6,-4.4 0.42667,-1.33332 1.04,-2.47999 1.84,-3.44 0.8,-0.95998 1.77333,-1.70665 2.92,-2.24 1.17333,-0.53332 2.50666,-0.79998 4,-0.8 1.19999,2e-5 2.25332,0.16002 3.16,0.48 0.93332,0.32002 1.62665,0.62668 2.08,0.92 l 0,-10.52"
         style="fill:none;stroke:#00ff00;font-family:Ubuntu;-inkscape-font-specification:Ubuntu"
         id="path3014" />
      <path
         d="m 138.97602,141.38657 -3.72,0 0,-20.8 3.72,0 0,20.8 m -1.88,-24.56 c -0.66667,2e-5 -1.24,-0.21331 -1.72,-0.64 -0.45333,-0.45331 -0.68,-1.05331 -0.68,-1.8 0,-0.74664 0.22667,-1.33331 0.68,-1.76 0.48,-0.45331 1.05333,-0.67997 1.72,-0.68 0.66666,3e-5 1.22666,0.22669 1.68,0.68 0.48,0.42669 0.72,1.01336 0.72,1.76 0,0.74669 -0.24,1.34669 -0.72,1.8 -0.45334,0.42669 -1.01334,0.64002 -1.68,0.64"
         style="fill:none;stroke:#00ff00;font-family:Ubuntu;-inkscape-font-specification:Ubuntu"
         id="path3016" />
      <path
         d="m 158.09227,137.54657 c -0.26668,-0.64 -0.62668,-1.45333 -1.08,-2.44 -0.42668,-0.98666 -0.89334,-2.05333 -1.4,-3.2 -0.50668,-1.14666 -1.05334,-2.31999 -1.64,-3.52 -0.56001,-1.22666 -1.09334,-2.37332 -1.6,-3.44 -0.50667,-1.09332 -0.98667,-2.06665 -1.44,-2.92 -0.42667,-0.85332 -0.77334,-1.50665 -1.04,-1.96 -0.29334,3.14668 -0.53334,6.56001 -0.72,10.24 -0.18667,3.65334 -0.34667,7.34667 -0.48,11.08 l -3.8,0 c 0.10667,-2.4 0.22667,-4.81333 0.36,-7.24 0.13333,-2.45333 0.28,-4.85333 0.44,-7.2 0.18667,-2.37332 0.37333,-4.67998 0.56,-6.92 0.21333,-2.23998 0.44,-4.35998 0.68,-6.36 l 3.4,0 c 0.71999,1.17336 1.49333,2.56002 2.32,4.16 0.82666,1.60002 1.65332,3.28002 2.48,5.04 0.82666,1.73335 1.62665,3.48001 2.4,5.24 0.77332,1.73334 1.47999,3.32001 2.12,4.76 0.63998,-1.43999 1.34665,-3.02666 2.12,-4.76 0.77332,-1.75999 1.57331,-3.50665 2.4,-5.24 0.82665,-1.75998 1.65331,-3.43998 2.48,-5.04 0.82664,-1.59998 1.59998,-2.98664 2.32,-4.16 l 3.4,0 c 0.90664,8.93335 1.58664,18.17334 2.04,27.72 l -3.8,0 c -0.13336,-3.73333 -0.29336,-7.42666 -0.48,-11.08 -0.18669,-3.67999 -0.42669,-7.09332 -0.72,-10.24 -0.26669,0.45335 -0.62669,1.10668 -1.08,1.96 -0.42669,0.85335 -0.89336,1.82668 -1.4,2.92 -0.50669,1.06668 -1.05335,2.21334 -1.64,3.44 -0.56002,1.20001 -1.09335,2.37334 -1.6,3.52 -0.50668,1.14667 -0.98668,2.21334 -1.44,3.2 -0.42668,0.98667 -0.77335,1.8 -1.04,2.44 l -3.12,0"
         style="fill:none;stroke:#00ff00;font-family:Ubuntu;-inkscape-font-specification:Ubuntu"
         id="path3018" />
      <path
         d="m 187.29602,138.70657 c 0.87999,0 1.65332,-0.0133 2.32,-0.04 0.69332,-0.0533 1.26666,-0.13333 1.72,-0.24 l 0,-6.2 c -0.26668,-0.13333 -0.70668,-0.23999 -1.32,-0.32 -0.58668,-0.10666 -1.30668,-0.15999 -2.16,-0.16 -0.56001,1e-5 -1.16001,0.04 -1.8,0.12 -0.61334,0.08 -1.18667,0.25334 -1.72,0.52 -0.50667,0.24 -0.93334,0.58667 -1.28,1.04 -0.34667,0.42667 -0.52,1 -0.52,1.72 0,1.33333 0.42666,2.26667 1.28,2.8 0.85333,0.50667 2.01333,0.76 3.48,0.76 m -0.32,-18.64 c 1.49332,2e-5 2.74666,0.20002 3.76,0.6 1.03999,0.37335 1.86665,0.92002 2.48,1.64 0.63999,0.69335 1.09332,1.53335 1.36,2.52 0.26665,0.96001 0.39998,2.02668 0.4,3.2 l 0,13 c -0.32001,0.0533 -0.77335,0.13333 -1.36,0.24 -0.56001,0.08 -1.20001,0.16 -1.92,0.24 -0.72001,0.08 -1.50668,0.14666 -2.36,0.2 -0.82668,0.08 -1.65334,0.12 -2.48,0.12 -1.17334,0 -2.25334,-0.12 -3.24,-0.36 -0.98667,-0.24 -1.84,-0.61334 -2.56,-1.12 -0.72,-0.53334 -1.28,-1.22667 -1.68,-2.08 -0.4,-0.85333 -0.6,-1.88 -0.6,-3.08 0,-1.14666 0.22667,-2.13333 0.68,-2.96 0.48,-0.82666 1.12,-1.49333 1.92,-2 0.8,-0.50666 1.73333,-0.87999 2.8,-1.12 1.06666,-0.23999 2.18666,-0.35999 3.36,-0.36 0.37333,1e-5 0.75999,0.0267 1.16,0.08 0.39999,0.0267 0.77332,0.08 1.12,0.16 0.37332,0.0533 0.69332,0.10668 0.96,0.16 0.26666,0.0533 0.45332,0.0933 0.56,0.12 l 0,-1.04 c -1e-5,-0.61332 -0.0667,-1.21332 -0.2,-1.8 -0.13334,-0.61332 -0.37334,-1.14665 -0.72,-1.6 -0.34668,-0.47999 -0.82668,-0.85332 -1.44,-1.12 -0.58668,-0.29332 -1.36001,-0.43999 -2.32,-0.44 -1.22667,1e-5 -2.30667,0.0934 -3.24,0.28 -0.90667,0.16001 -1.58667,0.33335 -2.04,0.52 l -0.44,-3.08 c 0.48,-0.21332 1.28,-0.41332 2.4,-0.6 1.12,-0.21332 2.33333,-0.31998 3.64,-0.32"
         style="fill:none;stroke:#00ff00;font-family:Ubuntu;-inkscape-font-specification:Ubuntu"
         id="path3020" />
      <path
         d="m 204.5954,120.58657 7.88,0 0,3.12 -7.88,0 0,9.6 c -1e-5,1.04 0.08,1.90667 0.24,2.6 0.15999,0.66667 0.39999,1.2 0.72,1.6 0.31999,0.37333 0.71999,0.64 1.2,0.8 0.47999,0.16 1.03999,0.24 1.68,0.24 1.11999,0 2.01332,-0.12 2.68,-0.36 0.69332,-0.26667 1.17332,-0.45333 1.44,-0.56 l 0.72,3.08 c -0.37335,0.18666 -1.02668,0.41333 -1.96,0.68 -0.93335,0.29333 -2.00001,0.44 -3.2,0.44 -1.41334,0 -2.58668,-0.17334 -3.52,-0.52 -0.90667,-0.37334 -1.64001,-0.92 -2.2,-1.64 -0.56001,-0.72 -0.96001,-1.6 -1.2,-2.64 -0.21334,-1.06667 -0.32001,-2.29333 -0.32,-3.68 l 0,-18.56 3.72,-0.64 0,6.44"
         style="fill:none;stroke:#00ff00;font-family:Ubuntu;-inkscape-font-specification:Ubuntu"
         id="path3022" />
      <path
         d="m 215.65852,131.02657 c 0,-1.83999 0.26667,-3.43999 0.8,-4.8 0.53333,-1.38665 1.24,-2.53332 2.12,-3.44 0.88,-0.90665 1.89333,-1.58665 3.04,-2.04 1.14666,-0.45332 2.31999,-0.67998 3.52,-0.68 2.79999,2e-5 4.94665,0.88002 6.44,2.64 1.49332,1.73335 2.23998,4.38668 2.24,7.96 -2e-5,0.16001 -2e-5,0.37334 0,0.64 -2e-5,0.24001 -0.0134,0.46667 -0.04,0.68 l -14.24,0 c 0.16,2.16 0.78666,3.8 1.88,4.92 1.09333,1.12 2.79999,1.68 5.12,1.68 1.30666,0 2.39999,-0.10667 3.28,-0.32 0.90665,-0.24 1.58665,-0.46667 2.04,-0.68 l 0.52,3.12 c -0.45335,0.24 -1.25335,0.49333 -2.4,0.76 -1.12001,0.26666 -2.40001,0.4 -3.84,0.4 -1.81334,0 -3.38667,-0.26667 -4.72,-0.8 -1.30667,-0.56 -2.38667,-1.32 -3.24,-2.28 -0.85333,-0.96 -1.49333,-2.09333 -1.92,-3.4 -0.4,-1.33333 -0.6,-2.78666 -0.6,-4.36 m 14.28,-2.04 c 0.0266,-1.67999 -0.40001,-3.05332 -1.28,-4.12 -0.85334,-1.09332 -2.04001,-1.63999 -3.56,-1.64 -0.85334,1e-5 -1.61334,0.17335 -2.28,0.52 -0.64001,0.32001 -1.18667,0.74668 -1.64,1.28 -0.45334,0.53335 -0.81334,1.14668 -1.08,1.84 -0.24,0.69334 -0.4,1.40001 -0.48,2.12 l 10.32,0"
         style="fill:none;stroke:#00ff00;font-family:Ubuntu;-inkscape-font-specification:Ubuntu"
         id="path3024" />
    </g>
  </g>
</svg>
